<?xml version="1.0" encoding="utf-8"?>
<!-- Generator: Adobe Illustrator 17.0.0, SVG Export Plug-In . SVG Version: 6.00 Build 0)  -->
<!DOCTYPE svg PUBLIC "-//W3C//DTD SVG 1.1//EN" "http://www.w3.org/Graphics/SVG/1.1/DTD/svg11.dtd">
<svg version="1.1" id="Layer_1" xmlns="http://www.w3.org/2000/svg" xmlns:xlink="http://www.w3.org/1999/xlink" x="0px" y="0px"
	 width="793.7px" height="346.696px" viewBox="-199.3 -247.196 793.7 346.696"
	 enable-background="new -199.3 -247.196 793.7 346.696" xml:space="preserve">
<path fill="#F8FAFF" d="M594.4-200.083c0,0-69.7,66.333-114.7,60.333c-23.245-3.099-50-44-85.037-1.172
	c-19.288,23.577-28.409,45.031-43.71,69.511c-7.109,11.374-16.799,44.267-35.795,31.867c-6.711-4.381-12.261-11.651-17.839-17.289
	c-7.035-7.111-13.752-15.779-24.231-17.354c-13.278-1.995-24.552,6.773-33.388,15.634c-9.895,9.923-18.428,21.604-26.143,33.269
	C173.605,35.126,61.033,70.917-34.066,74.042c-166.458,5.47-165.234,26.284-165.234,26.284h793.7
	C594.4,100.326,594.4-55.083,594.4-200.083z"/>
</svg>
