<svg xmlns="http://www.w3.org/2000/svg" viewBox="167.8 50.8 168.7 406.5" style="enable-background:new 167.775 50.785 168.72 406.508;version:1">
<style>
  .a{
    fill:#E7E8F2;
  }
  .b{
    fill:#bdf;
  }
</style>
  <switch>
    
    <g>
      <path d="m167.8 455.8 2.3-11c0.7-3.7 1.4-7.3 2.6-11l3-10.9c0.4-1.8 1.2-3.7 1.7-5.4l3.8-10.8c0.6-1.8 1.4-3.6 2.2-5.4 1.4-3.6 2.8-7.1 4.3-10.7 3-7 6.1-14.1 9.3-21.1s6.2-14 9.3-21.1l4.3-10.6 2.2-5.3 1.9-5.4 3.9-10.7c1.2-3.6 2.3-7.2 3.3-10.8 1.2-3.6 2.3-7.2 3.3-10.8l2.6-11c0.9-3.7 1.9-7.2 2.8-10.9l4.3-22 0.6-2.7 0.4-2.8 0.9-5.5c1.2-7.3 2.3-14.7 3.3-22l2.6-22.1c0.4-3.7 0.9-7.3 1.2-11.1l0.9-11.1 1.9-22.1c0.7-14.8 1.3-29.6 2-44.4h2.9c-0.6 14.8-1.2 29.6-1.9 44.4l-1.6 22.3-0.9 11.1c-0.3 3.7-0.7 7.4-1.2 11.1l-2.3 22.1c-1 7.3-2.2 14.8-3.3 22.1l-0.9 5.5-0.4 2.8-0.6 2.8-4.3 22c-0.9 3.7-1.9 7.3-2.8 11l-2.8 11c-1 3.7-2.2 7.2-3.2 10.9-1.2 3.7-2.2 7.2-3.3 10.9l-3.8 10.8-1.9 5.4-2.2 5.4-4.2 10.7c-3 7-6.1 14.1-9.1 21.1-3.2 7-6.2 14.1-9.1 21.1-1.4 3.6-2.8 7.1-4.2 10.6-0.7 1.7-1.4 3.6-2 5.3l-3.8 10.8c-0.6 1.8-1.3 3.6-1.7 5.4l-3 10.8c-1.2 3.6-1.7 7.2-2.5 10.9l-2.3 10.9-4.6-0.5z" class="a"/>
      <path d="m168.9 455.4c10.9-8.3 24.3-17 32-25.8 7.9-8.8 14.6-17.8 20.5-26.8 11.7-18 20.6-36.2 28.3-54.3 7.7-18.1 14.2-36.2 20.7-54.2l18.8-54.2 4.7-0.1-18.5 54.2c-6.3 18.1-12.7 36.1-20.3 54.3-7.3 18.1-15.9 36.3-27.7 54.4-8.1 12.6-14.5 20.3-20.6 27.1-7.9 9-19.4 17.8-30.4 26.2l-7.5-0.8z" class="a"/>
      <path d="m207.8 77.1c2.5 5.1 5 8.4 7.2 12.1 6.5 10.9 17.2 13.3 28 6.8 12-7.2 13.4-18.2 7.6-27.9-2.6-4.3-4.5-8.2-7.5-12l9.3-6.4c4.9 6.6 4.9 6.6 8.6 12.9 9.8 16.4 7.4 35.7-11.1 46.7-15.4 9.2-32.7 6.5-43.9-12.2-3.9-6.6-5.4-8.8-7.7-14.3l9.5-5.7z" class="b"/>
      <rect transform="matrix(-0.5122 -0.8589 0.8589 -0.5122 296.09 304.31)" x="228.3" y="62.1" width="12.3" height="12" class="b"/>
      <rect transform="matrix(-0.5122 -0.8589 0.8589 -0.5122 268.27 304.9)" x="214.6" y="70.3" width="12.3" height="12" class="b"/>
      <path d="m276.1 185.6c-1.7 6.4-2 11.3-2.9 16.2-2.5 14.7 5.1 24.9 19.7 27.4 16.1 2.8 25.7-6 28-19.1 1-5.8 2.2-10.7 2.4-16.4l13.2 1.4c-0.7 9.5-0.7 9.5-2.2 18.1-3.8 22-20.6 37.3-45.3 33.1-20.6-3.6-34-19.2-29.7-44.3 1.5-8.8 1.9-12 4-18.5l12.8 2.1z" class="b"/>
      <rect transform="matrix(0.1695 -0.9855 0.9855 0.1695 59.773 466.57)" x="299.5" y="190.8" width="14.4" height="14" class="b"/>
      <rect transform="matrix(0.1695 -0.9855 0.9855 0.1695 47.578 445.75)" x="281.1" y="187.6" width="14.4" height="14" class="b"/>
    </g>
  </switch>
</svg>
 