<?xml version="1.0" encoding="utf-8"?>
<!-- Generator: Adobe Illustrator 17.0.0, SVG Export Plug-In . SVG Version: 6.00 Build 0)  -->
<!DOCTYPE svg PUBLIC "-//W3C//DTD SVG 1.1//EN" "http://www.w3.org/Graphics/SVG/1.1/DTD/svg11.dtd">
<svg version="1.1" id="fore" xmlns="http://www.w3.org/2000/svg" xmlns:xlink="http://www.w3.org/1999/xlink" x="0px" y="0px"
	 width="2095.791px" height="672.817px" viewBox="-95.79 0 2095.791 672.817" enable-background="new -95.79 0 2095.791 672.817"
	 xml:space="preserve">
<g>
	<g>
		<path fill="#E7E8F2" d="M722.293,681.07l2.565-13.37c0.801-4.456,1.603-8.914,2.886-13.37l3.366-13.239
			c0.48-2.228,1.283-4.456,1.924-6.554l4.169-13.109c0.641-2.228,1.603-4.326,2.404-6.554c1.603-4.326,3.046-8.651,4.81-12.977
			c3.366-8.52,6.733-17.172,10.26-25.692c3.527-8.52,6.893-17.041,10.26-25.692l4.81-12.846l2.404-6.423l2.084-6.554l4.328-12.977
			c1.283-4.326,2.565-8.782,3.687-13.109c1.283-4.326,2.565-8.783,3.687-13.109l2.886-13.37c0.962-4.456,2.084-8.783,3.046-13.239
			l4.809-26.74l0.641-3.277l0.48-3.408l0.962-6.686c1.283-8.914,2.565-17.828,3.687-26.74l2.886-26.872
			c0.48-4.456,0.962-8.914,1.283-13.501l0.962-13.501l2.084-26.872c0.801-17.958,1.442-36.048,2.244-54.006h3.206
			c-0.641,17.958-1.283,36.048-2.084,54.006l-1.763,27.134l-0.962,13.501c-0.321,4.456-0.801,9.045-1.283,13.501l-2.565,26.872
			c-1.122,8.914-2.404,17.958-3.687,26.872l-0.962,6.686l-0.48,3.408l-0.641,3.408l-4.809,26.74
			c-0.962,4.456-2.084,8.914-3.046,13.37l-3.046,13.37c-1.122,4.456-2.404,8.782-3.527,13.239
			c-1.283,4.456-2.404,8.782-3.687,13.239l-4.168,13.109l-2.084,6.554l-2.404,6.554l-4.649,12.977
			c-3.366,8.52-6.733,17.172-10.099,25.692c-3.527,8.52-6.893,17.172-10.099,25.692c-1.603,4.326-3.046,8.651-4.649,12.846
			c-0.801,2.097-1.603,4.326-2.244,6.423l-4.169,13.109c-0.641,2.228-1.442,4.326-1.924,6.554l-3.366,13.109
			c-1.283,4.326-1.924,8.782-2.725,13.239l-2.565,13.239L722.293,681.07L722.293,681.07z"/>
		<path fill="#BBDDFF" d="M768.913,217.085c1.222,6.184,2.929,10.419,4.241,14.994c3.881,13.529,14.6,19.068,27.997,15.225
			c14.886-4.269,19.447-15.699,15.995-27.736c-1.541-5.372-2.491-10.038-4.678-14.977l11.797-4.182
			c3.331,8.41,3.331,8.41,5.586,16.271c5.821,20.294-2.201,40.254-25.027,46.801c-19.054,5.466-36.868-2.345-43.516-25.524
			c-2.34-8.157-3.316-11.004-4.188-17.426L768.913,217.085z"/>
		
			<rect x="793.213" y="208.253" transform="matrix(-0.2757 -0.9612 0.9612 -0.2757 814.0468 1043.1676)" fill="#BBDDFF" width="13.64" height="13.283"/>
		
			<rect x="776.186" y="213.135" transform="matrix(-0.2757 -0.9612 0.9612 -0.2757 787.6316 1033.0284)" fill="#BBDDFF" width="13.64" height="13.283"/>
	</g>
	<g>
		<path fill="#E7E8F2" d="M1252.76,679.735l-4.689-1.137l2.773-13.478c0.987-4.515,2.113-8.976,2.634-13.533l2.03-13.629
			c0.424-2.286,0.521-4.557,0.807-6.897l1.335-13.904c0.236-2.215,0.383-4.612,0.48-6.882c0.195-4.542,0.576-9.153,0.82-13.819
			c0.438-9.207,0.788-18.596,0.948-27.913c0.299-9.262,0.649-18.651,0.948-27.913l0.87-13.944l0.391-7.062l0.668-6.952l1.337-13.904
			c0.57-4.681,1.231-9.182,1.801-13.863c0.709-4.626,1.231-9.182,1.94-13.808l2.406-13.768c0.848-4.571,1.558-9.197,2.406-13.768
			l5.924-27.095l0.731-3.463l0.87-3.408l1.689-6.692c2.252-8.922,4.553-17.968,6.944-26.835l7.916-26.45
			c1.264-4.406,2.579-8.937,3.982-13.288l4.26-13.178l8.709-26.425c6.08-17.363,12.348-34.797,18.567-52.105l2.776,1.1
			c-6.08,17.363-12.349,34.797-18.429,52.16l-8.332,26.285l-4.26,13.178c-1.453,4.476-2.717,8.882-3.982,13.288l-7.638,26.56
			c-2.39,8.866-4.643,17.788-6.894,26.71l-1.689,6.692l-0.87,3.408l-0.681,3.338l-5.924,27.095
			c-0.848,4.571-1.508,9.072-2.356,13.643l-2.545,13.713c-0.66,4.502-1.231,9.182-1.752,13.739
			c-0.66,4.502-1.231,9.182-1.752,13.739l-1.148,13.834l-0.668,6.952l-0.341,6.937l-0.682,13.874
			c-0.349,9.387-0.649,18.651-0.809,27.968c-0.16,9.318-0.51,18.706-0.809,27.968c-0.105,4.722-0.487,9.333-0.731,13.999
			c-0.147,2.395-0.105,4.722-0.391,7.062l-1.335,13.904c-0.236,2.216-0.382,4.612-0.807,6.897l-2.079,13.753
			c-0.57,4.681-1.558,9.197-2.545,13.713L1252.76,679.735L1252.76,679.735z"/>
		<g>
			<path fill="#BBDDFF" d="M1388.346,228.396c-3.029,5.729-4.925,8.066-9.93,14.919c-14.221,19.474-33.635,20.675-49.643,8.984
				c-19.176-14.004-19.837-35.506-7.386-52.556c4.823-6.604,4.823-6.604,10.846-13.354l9.636,7.988
				c-3.753,3.884-6.252,7.938-9.548,12.451c-7.385,10.113-7.037,22.414,5.469,31.547c11.255,8.22,23.225,6.71,31.527-4.657
				c2.807-3.844,5.867-7.232,9.143-12.618L1388.346,228.396z"/>
			
				<rect x="1343.109" y="201.737" transform="matrix(0.5898 -0.8076 0.8076 0.5898 385.4933 1175.6407)" fill="#BBDDFF" width="13.642" height="13.285"/>
			
				<rect x="1357.414" y="212.182" transform="matrix(0.5898 -0.8076 0.8076 0.5898 382.9268 1191.4781)" fill="#BBDDFF" width="13.642" height="13.285"/>
		</g>
	</g>
	<g>
		<path fill="#E7E8F2" d="M-46.482,688.384l0.138-10.719c-0.002-3.572-0.005-7.144,0.429-10.722l0.885-10.623
			c0.071-1.787,0.433-3.578,0.67-5.262l1.632-10.528c0.216-1.789,0.744-3.477,1.105-5.268c0.744-3.477,1.343-6.951,2.232-10.431
			c1.655-6.85,3.286-13.806,5.086-20.659c1.8-6.852,3.454-13.704,5.086-20.659l2.253-10.326l1.127-5.163l0.816-5.264l1.797-10.425
			c0.455-3.473,0.887-7.051,1.197-10.522c0.455-3.473,0.887-7.051,1.197-10.522l0.429-10.722c0.143-3.574,0.453-7.045,0.596-10.619
			l-0.013-21.432l0.045-2.627l-0.122-2.73l-0.22-5.356c-0.293-7.14-0.588-14.281-1.027-21.418l-1.773-21.514
			c-0.292-3.568-0.583-7.136-1.042-10.808l-1.332-10.804l-2.498-21.504c-2.204-14.364-4.574-28.832-6.778-43.196l2.899-0.038
			c2.349,14.362,4.719,28.83,6.922,43.194l2.831,21.711l1.332,10.804c0.436,3.566,0.75,7.24,1.042,10.808l2.063,21.51
			c0.439,7.138,0.754,14.383,1.048,21.523l0.22,5.356l0.122,2.73l-0.023,2.732l0.013,21.432c-0.143,3.574-0.431,7.15-0.574,10.724
			l-0.574,10.724c-0.288,3.576-0.742,7.049-1.03,10.624c-0.433,3.578-0.742,7.049-1.175,10.626l-1.63,10.528l-0.816,5.264
			l-1.105,5.268l-2.087,10.429c-1.655,6.85-3.287,13.807-4.941,20.657c-1.8,6.852-3.432,13.809-4.941,20.657
			c-0.744,3.477-1.344,6.951-2.109,10.324c-0.383,1.685-0.744,3.477-0.982,5.161l-1.632,10.528c-0.216,1.789-0.599,3.475-0.67,5.262
			l-0.906,10.519c-0.455,3.473-0.308,7.044-0.306,10.615l-0.16,10.613L-46.482,688.384L-46.482,688.384z"/>
		<g>
			<path fill="#BBDDFF" d="M-69.591,313.172c1.663,6.081,3.67,10.181,5.308,14.65c4.845,13.216,15.934,17.969,29.02,13.172
				c14.54-5.329,18.267-17.057,13.958-28.815c-1.923-5.247-3.207-9.833-5.744-14.601l11.465-5.02
				c3.928,8.149,3.928,8.149,6.742,15.827c7.266,19.823,0.7,40.308-21.595,48.48c-18.612,6.822-36.941,0.313-45.24-22.328
				c-2.921-7.968-4.099-10.737-5.43-17.079L-69.591,313.172z"/>
			
				<rect x="-45.479" y="302.172" transform="matrix(-0.3442 -0.9389 0.9389 -0.3442 -341.9115 378.8002)" fill="#BBDDFF" width="13.642" height="13.285"/>
			
				<rect x="-62.111" y="308.266" transform="matrix(-0.3442 -0.9389 0.9389 -0.3442 -369.9886 371.3763)" fill="#BBDDFF" width="13.642" height="13.285"/>
		</g>
	</g>
	<g>
		<path fill="#E7E8F2" d="M920.236,676.324c8.734-10.847,19.356-22.073,25.816-33.71c6.566-11.666,12.267-23.565,17.321-35.665
			c10.114-24.017,18.079-48.392,25.195-72.636c7.113-24.336,13.373-48.632,19.528-72.9l18.141-72.905l3.515,0.012l-17.926,72.941
			c-6.046,24.332-12.2,48.6-19.309,73.027c-6.796,24.253-14.651,48.691-24.758,72.892c-6.992,16.743-12.325,26.973-17.415,35.968
			c-6.558,11.849-15.789,23.37-24.621,34.429L920.236,676.324z"/>
		<path fill="#BBDDFF" d="M1048.656,367.921l-16.245,0.799c-10.502-32.461,13.427-50.467,14.448-51.216l10.067,12.036l-5.032-6.019
			l5.105,5.965c-0.471,0.362-8.805,6.91-10.073,19.294c6.403-3.931,15.553-7.838,28.591-10.746l3.07,15.201
			C1053.905,358.752,1048.687,367.833,1048.656,367.921z"/>
	</g>
	<g>
		<path fill="#E7E8F2" d="M1898.633,681.709c-2.688-19.126-6.779-39.421-7.261-59.017c-0.557-19.672-0.303-39.423,0.571-59.271
			c1.664-39.421,5.253-78.7,9.488-117.514c4.276-38.951,9.24-77.571,14.278-116.115l15.426-115.682l-2.908-1.096l-15.619,115.669
			c-5.156,38.606-10.195,77.15-14.512,116.238c-4.503,38.724-8.208,78.065-9.956,117.762c-1.208,27.464-1.071,44.579-0.619,59.758
			c0.474,19.946,3.293,40.245,5.974,59.722L1898.633,681.709z"/>
		<g>
			<path fill="#BBDDFF" d="M1956.157,162.07c0.135,7.374-0.767,12.64-1.135,18.198c-1.086,16.434-11.971,25.424-28.244,24.35
				c-18.081-1.194-26.13-13.134-25.165-27.756c0.431-6.527,0.361-12.098,1.639-18.287l-14.527-1.861
				c-1.726,10.444-1.726,10.444-2.357,19.992c-1.628,24.651,12.493,45.488,40.218,47.319c23.144,1.528,41.581-11.817,43.44-39.973
				c0.654-9.908,1.065-13.406,0.471-20.965L1956.157,162.07L1956.157,162.07z"/>
			
				<rect x="1912.142" y="159.502" transform="matrix(0.0659 -0.9978 0.9978 0.0659 1626.6718 2072.1978)" fill="#BBDDFF" width="15.96" height="15.544"/>
			
				<rect x="1932.829" y="160.866" transform="matrix(0.0659 -0.9978 0.9978 0.0659 1644.635 2094.113)" fill="#BBDDFF" width="15.96" height="15.544"/>
		</g>
	</g>
	<g>
		<path fill="#E7E8F2" d="M92.103,709.911c10.519-19.975,23.654-40.921,30.808-61.844c7.298-20.989,13.329-42.226,18.404-63.691
			c10.192-42.619,27.74-86.04,38.153-128.186c10.614-42.958,13.121-85.028,15.072-127.421c1.462-31.775-1.887-126.958-1.887-126.958
			l4.993-0.591c0,0,3.556,95.199,2.198,126.983c-1.815,42.476-4.464,86.39-14.738,127.598
			c-10.491,42.077-27.338,85.615-37.488,128.547c-7.022,29.702-12.819,48.033-18.485,64.223
			c-7.255,21.299-18.365,42.506-28.986,62.858L92.103,709.911z"/>
		<g>
			<path fill="#BBDDFF" d="M209.099,186.345l-16.245,0.799c-10.502-32.461,13.427-50.467,14.448-51.216l10.067,12.036l-5.032-6.019
				l5.105,5.965c-0.471,0.362-8.805,6.91-10.073,19.294c6.403-3.931,15.553-7.838,28.591-10.746l3.07,15.201
				C214.348,177.176,209.13,186.257,209.099,186.345z"/>
		</g>
	</g>
	<g>
		<path fill="#E7E8F2" d="M1539.544,672.194l2.565-16.111c0.801-5.369,1.603-10.741,2.886-16.111l3.366-15.953
			c0.48-2.685,1.283-5.369,1.924-7.898l4.169-15.796c0.641-2.685,1.603-5.213,2.404-7.898c1.603-5.213,3.046-10.424,4.81-15.637
			c3.366-10.266,6.733-20.692,10.26-30.959c3.527-10.266,6.893-20.534,10.26-30.959l4.81-15.479l2.404-7.74l2.084-7.898
			l4.328-15.637c1.283-5.213,2.565-10.582,3.687-15.796c1.283-5.213,2.565-10.583,3.687-15.796l2.886-16.111
			c0.962-5.369,2.084-10.583,3.046-15.953l4.809-32.221l0.641-3.949l0.48-4.107l0.962-8.057c1.283-10.741,2.565-21.483,3.687-32.221
			l2.886-32.38c0.48-5.369,0.962-10.741,1.283-16.269l0.962-16.269l2.084-32.38c0.801-21.639,1.442-43.437,2.244-65.077h3.206
			c-0.641,21.639-1.283,43.437-2.084,65.077l-1.763,32.696l-0.962,16.269c-0.321,5.369-0.801,10.899-1.283,16.269l-2.565,32.38
			c-1.122,10.741-2.404,21.639-3.687,32.38l-0.962,8.057l-0.48,4.107l-0.641,4.107l-4.809,32.221
			c-0.962,5.369-2.084,10.741-3.046,16.111l-3.046,16.111c-1.122,5.369-2.404,10.582-3.527,15.953
			c-1.283,5.369-2.404,10.582-3.687,15.953l-4.168,15.796l-2.084,7.897l-2.404,7.898l-4.649,15.637
			c-3.366,10.266-6.733,20.692-10.099,30.959c-3.527,10.267-6.893,20.692-10.099,30.959c-1.603,5.213-3.046,10.424-4.649,15.479
			c-0.801,2.527-1.603,5.213-2.244,7.74l-4.169,15.796c-0.641,2.685-1.442,5.213-1.924,7.898l-3.366,15.796
			c-1.283,5.213-1.924,10.582-2.725,15.953l-2.565,15.953L1539.544,672.194L1539.544,672.194z"/>
		<g>
			<path fill="#BBDDFF" d="M1651.268,144.873l-16.245,0.799c-10.502-32.461,13.427-50.467,14.448-51.216l10.067,12.036l-5.032-6.019
				l5.105,5.965c-0.471,0.362-8.805,6.91-10.073,19.294c6.403-3.931,15.553-7.838,28.591-10.746l3.07,15.201
				C1656.517,135.704,1651.299,144.785,1651.268,144.873z"/>
		</g>
	</g>
	<g>
		<path fill="#E7E8F2" d="M383.53,675.083l-4.669-1.189l2.355-12.423c0.846-4.16,1.832-8.266,2.216-12.478l1.616-12.584
			c0.353-2.108,0.384-4.212,0.6-6.375l0.921-12.86c0.17-2.048,0.246-4.267,0.277-6.37c0.062-4.208,0.307-8.474,0.415-12.796
			c0.169-8.528,0.245-17.227,0.136-25.866c0.03-8.584,0.106-17.283,0.136-25.866l0.46-12.91l0.184-6.54l0.461-6.43l0.922-12.86
			c0.429-4.326,0.954-8.482,1.383-12.808c0.568-4.271,0.954-8.482,1.522-12.753l1.984-12.703c0.707-4.216,1.276-8.487,1.984-12.703
			l5.079-24.965l0.623-3.191l0.762-3.136l1.478-6.159c1.97-8.212,3.986-16.537,6.095-24.694l7.067-24.309
			c1.123-4.051,2.293-8.216,3.556-12.212l3.834-12.102l7.852-24.263c5.513-15.932,11.21-31.925,16.861-47.802l2.776,1.1
			c-5.513,15.932-11.21,31.924-16.723,47.856l-7.483,24.144l-3.834,12.102c-1.308,4.11-2.431,8.162-3.556,12.212l-6.789,24.419
			c-2.109,8.156-4.08,16.368-6.05,24.58l-1.478,6.159l-0.762,3.136l-0.578,3.077l-5.079,24.965
			c-0.707,4.216-1.231,8.373-1.938,12.588l-2.123,12.648c-0.523,4.157-0.954,8.482-1.338,12.695
			c-0.523,4.157-0.954,8.482-1.338,12.695l-0.738,12.8l-0.461,6.43l-0.138,6.425l-0.276,12.851
			c-0.076,8.698-0.106,17.283,0.003,25.921s0.033,17.338,0.003,25.921c0.031,4.377-0.214,8.643-0.321,12.965
			c-0.076,2.218,0.031,4.377-0.184,6.54l-0.921,12.86c-0.17,2.049-0.246,4.267-0.6,6.375l-1.661,12.698
			c-0.429,4.326-1.276,8.487-2.123,12.648L383.53,675.083L383.53,675.083z"/>
		<g>
			<path fill="#B2D6F7" d="M505.73,257.512c-3.029,5.729-4.925,8.066-9.93,14.919c-14.221,19.474-33.635,20.675-49.643,8.984
				c-19.176-14.004-19.837-35.506-7.386-52.556c4.823-6.604,4.823-6.604,10.846-13.354l9.636,7.988
				c-3.753,3.884-6.252,7.938-9.548,12.451c-7.385,10.113-7.037,22.414,5.469,31.547c11.255,8.22,23.225,6.71,31.527-4.657
				c2.807-3.844,5.867-7.232,9.143-12.618L505.73,257.512z"/>
			
				<rect x="460.537" y="230.839" transform="matrix(0.5898 -0.8076 0.8076 0.5898 -0.0607 474.843)" fill="#B2D6F7" width="13.642" height="13.285"/>
			
				<rect x="474.841" y="241.283" transform="matrix(0.5898 -0.8076 0.8076 0.5898 -2.6269 490.6793)" fill="#B2D6F7" width="13.642" height="13.285"/>
		</g>
	</g>
</g>
</svg>
