<?xml version="1.0" encoding="utf-8"?>
<!-- Generator: Adobe Illustrator 17.0.0, SVG Export Plug-In . SVG Version: 6.00 Build 0)  -->
<!DOCTYPE svg PUBLIC "-//W3C//DTD SVG 1.1//EN" "http://www.w3.org/Graphics/SVG/1.1/DTD/svg11.dtd">
<svg version="1.1" id="fore" xmlns="http://www.w3.org/2000/svg" xmlns:xlink="http://www.w3.org/1999/xlink" x="0px" y="0px"
	 width="925px" height="305.56px" viewBox="309.51 225.35 925 305.56" enable-background="new 309.51 225.35 925 305.56"
	 xml:space="preserve">
<g>
	<g>
		<path fill="#BBDDFF" d="M746.88,529.2l0.9-6.54c0.28-2.18,0.56-4.36,1.01-6.54l1.18-6.47c0.17-1.09,0.45-2.18,0.67-3.2l1.46-6.41
			c0.22-1.09,0.56-2.12,0.84-3.2c0.56-2.12,1.07-4.23,1.68-6.35c1.18-4.17,2.36-8.4,3.59-12.56c1.23-4.17,2.41-8.33,3.59-12.56
			l1.68-6.28l0.84-3.14l0.73-3.2l1.51-6.35c0.45-2.12,0.9-4.29,1.29-6.41c0.45-2.12,0.9-4.29,1.29-6.41l1.01-6.54
			c0.34-2.18,0.73-4.29,1.07-6.47l1.68-13.08l0.22-1.6l0.17-1.67l0.34-3.27c0.45-4.36,0.9-8.72,1.29-13.08l1.01-13.14
			c0.17-2.18,0.34-4.36,0.45-6.6l0.34-6.6l0.73-13.14c0.28-8.78,0.5-17.63,0.79-26.41h1.12c-0.22,8.78-0.45,17.63-0.73,26.41
			l-0.62,13.27l-0.34,6.6c-0.11,2.18-0.28,4.42-0.45,6.6l-0.9,13.14c-0.39,4.36-0.84,8.78-1.29,13.14l-0.34,3.27l-0.17,1.67
			l-0.22,1.67l-1.68,13.08c-0.34,2.18-0.73,4.36-1.07,6.54l-1.07,6.54c-0.39,2.18-0.84,4.29-1.23,6.47
			c-0.45,2.18-0.84,4.29-1.29,6.47l-1.46,6.41l-0.73,3.2l-0.84,3.2l-1.63,6.35c-1.18,4.17-2.36,8.4-3.53,12.56
			c-1.23,4.17-2.41,8.4-3.53,12.56c-0.56,2.12-1.07,4.23-1.63,6.28c-0.28,1.03-0.56,2.12-0.79,3.14l-1.46,6.41
			c-0.22,1.09-0.5,2.12-0.67,3.2l-1.18,6.41c-0.45,2.12-0.67,4.29-0.95,6.47l-0.9,6.47L746.88,529.2L746.88,529.2z"/>
		<path fill="#98CBF4" d="M763.19,307.9c0.43,2.16,1.03,3.65,1.48,5.25c1.36,4.74,5.11,6.67,9.8,5.33c5.21-1.49,6.81-5.49,5.6-9.71
			c-0.54-1.88-0.87-3.51-1.64-5.24l4.13-1.46c1.17,2.94,1.17,2.94,1.96,5.69c2.04,7.1-0.77,14.09-8.76,16.38
			c-6.67,1.91-12.9-0.82-15.23-8.93c-0.82-2.85-1.16-3.85-1.47-6.1L763.19,307.9z"/>
		
			<rect x="771.7" y="304.82" transform="matrix(0.2757 0.9612 -0.9612 0.2757 855.8983 -521.6232)" fill="#98CBF4" width="4.77" height="4.65"/>
		
			<rect x="765.74" y="306.53" transform="matrix(0.2757 0.9612 -0.9612 0.2757 853.2238 -514.6569)" fill="#98CBF4" width="4.77" height="4.65"/>
	</g>
	<g>
		<path fill="#BBDDFF" d="M957.09,532.57l-1.64-0.56l0.97-6.66c0.35-2.23,0.74-4.44,0.92-6.69l0.71-6.74
			c0.15-1.13,0.18-2.25,0.28-3.41l0.47-6.87c0.08-1.09,0.13-2.28,0.17-3.4c0.07-2.24,0.2-4.52,0.29-6.83
			c0.15-4.55,0.28-9.19,0.33-13.79c0.1-4.58,0.23-9.22,0.33-13.79l0.3-6.89l0.14-3.49l0.23-3.44l0.47-6.87
			c0.2-2.31,0.43-4.54,0.63-6.85c0.25-2.29,0.43-4.54,0.68-6.82l0.84-6.8c0.3-2.26,0.55-4.55,0.84-6.8l2.07-13.39l0.26-1.71
			l0.3-1.68l0.59-3.31c0.79-4.41,1.59-8.88,2.43-13.26l2.77-13.07c0.44-2.18,0.9-4.42,1.39-6.57l1.49-6.51l3.05-13.06
			c2.13-8.58,4.32-17.2,6.5-25.75l0.97,0.54c-2.13,8.58-4.32,17.2-6.45,25.78l-2.92,12.99l-1.49,6.51
			c-0.51,2.21-0.95,4.39-1.39,6.57l-2.67,13.13c-0.84,4.38-1.62,8.79-2.41,13.2l-0.59,3.31l-0.3,1.68l-0.24,1.65l-2.07,13.39
			c-0.3,2.26-0.53,4.48-0.82,6.74l-0.89,6.78c-0.23,2.22-0.43,4.54-0.61,6.79c-0.23,2.22-0.43,4.54-0.61,6.79l-0.4,6.84l-0.23,3.44
			l-0.12,3.43l-0.24,6.86c-0.12,4.64-0.23,9.22-0.28,13.82c-0.06,4.61-0.18,9.24-0.28,13.82c-0.04,2.33-0.17,4.61-0.26,6.92
			c-0.05,1.18-0.04,2.33-0.14,3.49l-0.47,6.87c-0.08,1.1-0.13,2.28-0.28,3.41l-0.73,6.8c-0.2,2.31-0.55,4.55-0.89,6.78
			L957.09,532.57L957.09,532.57z"/>
		<g>
			<path fill="#98CBF4" d="M1004.54,311.85c-1.06,2.01-1.72,2.82-3.48,5.22c-4.98,6.82-11.77,7.24-17.38,3.14
				c-6.71-4.9-6.94-12.43-2.59-18.39c1.69-2.31,1.69-2.31,3.8-4.67l3.37,2.8c-1.31,1.36-2.19,2.78-3.34,4.36
				c-2.58,3.54-2.46,7.84,1.91,11.04c3.94,2.88,8.13,2.35,11.03-1.63c0.98-1.35,2.05-2.53,3.2-4.42L1004.54,311.85z"/>
			
				<rect x="988.72" y="302.51" transform="matrix(-0.5898 0.8076 -0.8076 -0.5898 1821.8192 -315.7688)" fill="#98CBF4" width="4.77" height="4.65"/>
			
				<rect x="993.73" y="306.17" transform="matrix(-0.5898 0.8076 -0.8076 -0.5898 1832.7316 -314.0004)" fill="#98CBF4" width="4.77" height="4.65"/>
		</g>
	</g>
	<g>
		<path fill="#BBDDFF" d="M370.75,530.04l-0.99-5.66c-0.35-1.88-0.7-3.76-0.89-5.68l-0.73-5.65c-0.15-0.95-0.2-1.91-0.28-2.82
			l-0.46-5.65c-0.1-0.96-0.08-1.88-0.13-2.85c-0.08-1.88-0.21-3.75-0.25-5.64c-0.1-3.71-0.21-7.48-0.26-11.21
			c-0.05-3.72-0.14-7.44-0.26-11.21l-0.23-5.58l-0.11-2.79l-0.23-2.83l-0.39-5.61c-0.18-1.86-0.38-3.77-0.61-5.62
			c-0.18-1.86-0.38-3.77-0.61-5.62l-0.89-5.68c-0.3-1.89-0.53-3.74-0.83-5.63l-2.09-11.29l-0.24-1.39l-0.31-1.43l-0.6-2.81
			c-0.79-3.74-1.59-7.49-2.43-11.22l-2.7-11.22c-0.45-1.86-0.89-3.72-1.41-5.63l-1.51-5.61l-2.95-11.17
			c-2.15-7.43-4.38-14.9-6.53-22.33l0.99-0.2c2.2,7.42,4.43,14.89,6.58,22.32l3.08,11.26l1.51,5.61c0.5,1.85,0.96,3.77,1.41,5.63
			l2.8,11.2c0.84,3.73,1.66,7.53,2.45,11.27l0.6,2.81l0.31,1.43l0.26,1.44l2.09,11.29c0.3,1.89,0.55,3.79,0.84,5.69l0.84,5.69
			c0.25,1.9,0.43,3.76,0.68,5.66c0.2,1.91,0.43,3.76,0.63,5.67l0.46,5.65l0.23,2.83l0.13,2.85l0.3,5.63
			c0.1,3.71,0.21,7.48,0.31,11.2c0.05,3.72,0.16,7.49,0.31,11.2c0.08,1.88,0.21,3.75,0.28,5.57c0.03,0.91,0.08,1.88,0.16,2.78
			l0.46,5.65c0.1,0.96,0.13,1.87,0.28,2.81l0.71,5.6c0.18,1.86,0.58,3.73,0.93,5.61l0.98,5.6L370.75,530.04L370.75,530.04z"/>
		<g>
			<path fill="#98CBF4" d="M330.78,336.44c0.58,2.13,1.28,3.56,1.86,5.13c1.7,4.63,5.58,6.29,10.16,4.61
				c5.09-1.87,6.39-5.97,4.89-10.09c-0.67-1.84-1.12-3.44-2.01-5.11l4.01-1.76c1.37,2.85,1.37,2.85,2.36,5.54
				c2.54,6.94,0.24,14.11-7.56,16.97c-6.51,2.39-12.93,0.11-15.83-7.81c-1.02-2.79-1.43-3.76-1.9-5.98L330.78,336.44z"/>
			
				<rect x="339.22" y="332.59" transform="matrix(0.3442 0.9389 -0.9389 0.3442 538.4745 -101.095)" fill="#98CBF4" width="4.77" height="4.65"/>
			
				<rect x="333.4" y="334.72" transform="matrix(0.3442 0.9389 -0.9389 0.3442 536.66 -94.231)" fill="#98CBF4" width="4.77" height="4.65"/>
		</g>
	</g>
	<g>
		<path fill="#BBDDFF" d="M816.16,531.44c3.06-6.16,6.77-12.54,9.04-19.16c2.3-6.63,4.29-13.39,6.06-20.27
			c3.54-13.65,6.33-27.5,8.82-41.27c2.49-13.83,4.68-27.63,6.83-41.42l6.35-41.43l1.23,0.01l-6.27,41.45
			c-2.12,13.83-4.27,27.62-6.76,41.5c-2.38,13.78-5.13,27.67-8.67,41.42c-2.45,9.51-4.31,15.33-6.1,20.44
			c-2.3,6.73-5.53,13.28-8.62,19.56L816.16,531.44z"/>
		<path fill="#98CBF4" d="M861.1,360.69l-5.69,0.28c-3.68-11.36,4.7-17.66,5.06-17.93l3.52,4.21l-1.76-2.11l1.79,2.09
			c-0.16,0.13-3.08,2.42-3.53,6.75c2.24-1.38,5.44-2.74,10.01-3.76l1.07,5.32C862.94,357.48,861.11,360.66,861.1,360.69z"/>
	</g>
	<g>
		<g>
			<path fill="#BBDDFF" d="M1111.44,532.33l-0.83-1.16c23.42-28.27,32.94-68.77,42.14-107.94c3.25-13.81,6.6-28.09,10.5-41.4
				c8.23-28.13,9.26-38.74,12-67.09c2.34-24.16,0.27-55.06,0.25-55.36l1.22-0.14c0.02,0.31,2.1,31.38-0.25,55.7
				c-2.75,28.49-3.78,39.15-12.07,67.46c-3.88,13.26-7.23,27.52-10.47,41.3C1144.67,463.06,1135.1,503.77,1111.44,532.33z"/>
		</g>
		<g>
			<path fill="#98CBF4" d="M1188.51,241.21c-0.18,2.58-0.65,4.38-0.95,6.31c-0.88,5.7-4.94,8.5-10.59,7.63
				c-6.27-0.96-8.71-5.37-7.93-10.44c0.35-2.26,0.49-4.21,1.13-6.33l-5.01-1.09c-0.92,3.59-0.92,3.59-1.43,6.9
				c-1.31,8.55,2.98,16.24,12.59,17.72c8.02,1.23,14.86-2.86,16.36-12.62c0.53-3.43,0.78-4.64,0.8-7.3L1188.51,241.21
				L1188.51,241.21z"/>
			
				<rect x="1172.99" y="239.23" transform="matrix(-0.1521 0.9884 -0.9884 -0.1521 1593.7189 -883.3657)" fill="#98CBF4" width="5.59" height="5.44"/>
			
				<rect x="1180.16" y="240.33" transform="matrix(-0.1521 0.9884 -0.9884 -0.1521 1603.0713 -889.1841)" fill="#98CBF4" width="5.59" height="5.44"/>
		</g>
	</g>
	<g>
		<path fill="#BBDDFF" d="M494.11,531.24c3.28-7.67,7.46-15.75,9.54-23.71c2.13-7.99,3.82-16.04,5.17-24.17
			c2.72-16.13,7.99-32.7,10.79-48.66c2.86-16.27,2.9-32.05,2.74-47.95c-0.12-11.91-3.18-47.46-3.18-47.46l1.73-0.31
			c0,0,3.13,35.55,3.29,47.46c0.21,15.92,0.15,32.4-2.62,48.01c-2.83,15.93-7.86,32.53-10.55,48.78
			c-1.87,11.24-3.53,18.21-5.19,24.37c-2.11,8.1-5.58,16.24-8.88,24.05L494.11,531.24z"/>
		<g>
			<path fill="#98CBF4" d="M524.64,333.58l-5.66,0.58c-4.27-11.15,3.76-17.89,4.1-18.17l3.74,4.02l-1.87-2.01l1.89,1.99
				c-0.16,0.14-2.95,2.58-3.16,6.93c2.17-1.49,5.29-3.03,9.79-4.29l1.35,5.26C526.31,330.27,524.65,333.55,524.64,333.58z"/>
		</g>
	</g>
	<g>
		<path fill="#BBDDFF" d="M1044.56,531.03l0.9-7.66c0.28-2.55,0.56-5.11,1.01-7.66l1.18-7.58c0.17-1.28,0.45-2.55,0.67-3.75
			l1.46-7.51c0.22-1.28,0.56-2.48,0.84-3.75c0.56-2.48,1.07-4.96,1.68-7.43c1.18-4.88,2.36-9.84,3.59-14.72
			c1.23-4.88,2.41-9.76,3.59-14.72l1.68-7.36l0.84-3.68l0.73-3.75l1.51-7.43c0.45-2.48,0.9-5.03,1.29-7.51
			c0.45-2.48,0.9-5.03,1.29-7.51l1.01-7.66c0.34-2.55,0.73-5.03,1.07-7.58l1.68-15.32l0.22-1.88l0.17-1.95l0.34-3.83
			c0.45-5.11,0.9-10.21,1.29-15.32l1.01-15.39c0.17-2.55,0.34-5.11,0.45-7.73l0.34-7.73l0.73-15.39c0.28-10.29,0.5-20.65,0.79-30.94
			h1.12c-0.22,10.29-0.45,20.65-0.73,30.94l-0.62,15.54l-0.34,7.73c-0.11,2.55-0.28,5.18-0.45,7.73l-0.9,15.39
			c-0.39,5.11-0.84,10.29-1.29,15.39l-0.34,3.83l-0.17,1.95l-0.22,1.95l-1.68,15.32c-0.34,2.55-0.73,5.11-1.07,7.66l-1.07,7.66
			c-0.39,2.55-0.84,5.03-1.23,7.58c-0.45,2.55-0.84,5.03-1.29,7.58l-1.46,7.51l-0.73,3.75l-0.84,3.75l-1.63,7.43
			c-1.18,4.88-2.36,9.84-3.53,14.72c-1.23,4.88-2.41,9.84-3.53,14.72c-0.56,2.48-1.07,4.96-1.63,7.36c-0.28,1.2-0.56,2.48-0.79,3.68
			l-1.46,7.51c-0.22,1.28-0.5,2.48-0.67,3.75l-1.18,7.51c-0.45,2.48-0.67,5.03-0.95,7.58l-0.9,7.58L1044.56,531.03L1044.56,531.03z"
			/>
		<g>
			<path fill="#98CBF4" d="M1083.66,282.44l-5.69,0.28c-3.68-11.36,4.7-17.66,5.06-17.93l3.52,4.21l-1.76-2.11l1.79,2.09
				c-0.16,0.13-3.08,2.42-3.53,6.75c2.24-1.38,5.44-2.74,10.01-3.76l1.07,5.32C1085.5,279.23,1083.67,282.41,1083.66,282.44z"/>
		</g>
	</g>
	<g>
		<path fill="#BBDDFF" d="M628.31,533.17l-1.63-0.5l0.82-5.17c0.3-1.73,0.64-3.44,0.78-5.2l0.57-5.24c0.12-0.88,0.13-1.75,0.21-2.65
			l0.32-5.36c0.06-0.85,0.09-1.78,0.1-2.65c0.02-1.75,0.11-3.53,0.15-5.33c0.06-3.55,0.09-7.17,0.05-10.77
			c0.01-3.57,0.04-7.2,0.05-10.77l0.16-5.38l0.06-2.72l0.16-2.68l0.32-5.36c0.15-1.8,0.33-3.53,0.48-5.33
			c0.2-1.78,0.33-3.53,0.53-5.31l0.69-5.29c0.25-1.76,0.45-3.53,0.69-5.29l1.78-10.4l0.22-1.33l0.27-1.31l0.52-2.56
			c0.69-3.42,1.4-6.89,2.13-10.28l2.47-10.12c0.39-1.69,0.8-3.42,1.24-5.09l1.34-5.04l2.75-10.1c1.93-6.63,3.92-13.29,5.9-19.91
			l0.97,0.46c-1.93,6.63-3.92,13.29-5.85,19.93l-2.62,10.05l-1.34,5.04c-0.46,1.71-0.85,3.4-1.24,5.09l-2.38,10.17
			c-0.74,3.4-1.43,6.82-2.12,10.24l-0.52,2.56l-0.27,1.31l-0.2,1.28l-1.78,10.4c-0.25,1.76-0.43,3.49-0.68,5.24l-0.74,5.27
			c-0.18,1.73-0.33,3.53-0.47,5.29c-0.18,1.73-0.33,3.53-0.47,5.29l-0.26,5.33l-0.16,2.68l-0.05,2.68l-0.1,5.35
			c-0.03,3.62-0.04,7.2,0,10.79c0.04,3.6,0.01,7.22,0,10.79c0.01,1.82-0.07,3.6-0.11,5.4c-0.03,0.92,0.01,1.82-0.06,2.72l-0.32,5.36
			c-0.06,0.85-0.09,1.78-0.21,2.65l-0.58,5.29c-0.15,1.8-0.45,3.53-0.74,5.27L628.31,533.17L628.31,533.17z"/>
		<g>
			<path fill="#98CBF4" d="M671.08,360.36c-1.06,2.01-1.72,2.82-3.48,5.22c-4.98,6.82-11.77,7.24-17.38,3.14
				c-6.71-4.9-6.94-12.43-2.59-18.39c1.69-2.31,1.69-2.31,3.8-4.67l3.37,2.8c-1.31,1.36-2.19,2.78-3.34,4.36
				c-2.58,3.54-2.46,7.84,1.91,11.04c3.94,2.88,8.13,2.35,11.03-1.63c0.98-1.35,2.05-2.53,3.2-4.42L671.08,360.36z"/>
			
				<rect x="655.27" y="351.02" transform="matrix(-0.5898 0.8076 -0.8076 -0.5898 1330.8738 30.6364)" fill="#98CBF4" width="4.77" height="4.65"/>
			
				<rect x="660.27" y="354.67" transform="matrix(-0.5898 0.8076 -0.8076 -0.5898 1341.7853 32.4045)" fill="#98CBF4" width="4.77" height="4.65"/>
		</g>
	</g>
	<g>
		<path fill="#BBDDFF" d="M413.42,531.42l0.18-6.76c0.04-2.25,0.08-4.5,0.29-6.78l0.46-6.75c0.05-1.13,0.21-2.28,0.32-3.36
			l0.75-6.73c0.1-1.14,0.32-2.24,0.48-3.39c0.32-2.24,0.59-4.46,0.97-6.71c0.71-4.42,1.42-8.9,2.19-13.33
			c0.77-4.43,1.48-8.85,2.19-13.33l0.98-6.64l0.49-3.32l0.37-3.37l0.81-6.68c0.21-2.22,0.42-4.5,0.58-6.7
			c0.21-2.22,0.42-4.5,0.58-6.7l0.29-6.78c0.1-2.26,0.25-4.47,0.35-6.73l0.24-13.51l0.05-1.66l-0.02-1.71l-0.02-3.36
			c-0.03-4.48-0.06-8.97-0.15-13.44l-0.43-13.45c-0.07-2.23-0.14-4.46-0.28-6.75l-0.39-6.73l-0.71-13.4
			c-0.68-8.92-1.42-17.9-2.1-26.82l1.11-0.2c0.74,8.91,1.48,17.89,2.16,26.81l0.84,13.51l0.39,6.73c0.13,2.22,0.21,4.52,0.28,6.75
			l0.54,13.43c0.09,4.47,0.13,9.02,0.16,13.5l0.02,3.36l0.02,1.71l-0.04,1.72l-0.24,13.51c-0.1,2.26-0.25,4.53-0.34,6.79l-0.34,6.79
			c-0.15,2.27-0.36,4.49-0.52,6.76c-0.21,2.28-0.36,4.49-0.57,6.77l-0.75,6.73l-0.37,3.37l-0.48,3.39l-0.92,6.7
			c-0.71,4.42-1.42,8.9-2.13,13.32c-0.77,4.43-1.47,8.91-2.13,13.32c-0.32,2.24-0.59,4.46-0.93,6.63c-0.17,1.09-0.32,2.24-0.44,3.31
			l-0.75,6.73c-0.1,1.14-0.27,2.23-0.32,3.36l-0.47,6.68c-0.21,2.22-0.2,4.46-0.24,6.71l-0.18,6.7L413.42,531.42L413.42,531.42z"/>
		<g>
			<path fill="#98CBF4" d="M426.11,310.63l-5.61-1.21c-1.17-15.31,8.36-20.94,8.76-21.17l2.54,6.27l-1.27-3.13l1.3,3.12
				c-0.19,0.11-3.53,2.2-4.88,7.53c2.48-1.12,5.9-1.96,10.58-1.99l-0.08,6.99C428.59,307.09,426.13,310.59,426.11,310.63z"/>
		</g>
	</g>
</g>
</svg>
