<?xml version="1.0" encoding="utf-8"?>
<!-- Generator: Adobe Illustrator 17.0.0, SVG Export Plug-In . SVG Version: 6.00 Build 0)  -->
<!DOCTYPE svg PUBLIC "-//W3C//DTD SVG 1.1//EN" "http://www.w3.org/Graphics/SVG/1.1/DTD/svg11.dtd">
<svg version="1.1" id="fore" xmlns="http://www.w3.org/2000/svg" xmlns:xlink="http://www.w3.org/1999/xlink" x="0px" y="0px"
	 width="925px" height="250px" viewBox="309.51 225.35 925 250" enable-background="new 309.51 225.35 925 250"
	 xml:space="preserve">
<g>
	<g>
		<path fill="#BBDDFF" d="M746.88,470.29l0.9-4.68c0.28-1.56,0.56-3.12,1.01-4.68l1.18-4.63c0.17-0.78,0.45-1.56,0.67-2.29
			l1.46-4.59c0.22-0.78,0.56-1.51,0.84-2.29c0.56-1.51,1.07-3.03,1.68-4.54c1.18-2.98,2.36-6.01,3.59-8.99
			c1.23-2.98,2.41-5.96,3.59-8.99l1.68-4.5l0.84-2.25l0.73-2.29l1.51-4.54c0.45-1.51,0.9-3.07,1.29-4.59
			c0.45-1.51,0.9-3.07,1.29-4.59l1.01-4.68c0.34-1.56,0.73-3.07,1.07-4.63l1.68-9.36l0.22-1.15l0.17-1.19l0.34-2.34
			c0.45-3.12,0.9-6.24,1.29-9.36l1.01-9.41c0.17-1.56,0.34-3.12,0.45-4.73l0.34-4.73l0.73-9.41c0.28-6.29,0.5-12.62,0.79-18.9h1.12
			c-0.22,6.29-0.45,12.62-0.73,18.9l-0.62,9.5l-0.34,4.73c-0.11,1.56-0.28,3.17-0.45,4.73l-0.9,9.41c-0.39,3.12-0.84,6.29-1.29,9.41
			l-0.34,2.34l-0.17,1.19l-0.22,1.19l-1.68,9.36c-0.34,1.56-0.73,3.12-1.07,4.68l-1.07,4.68c-0.39,1.56-0.84,3.07-1.23,4.63
			c-0.45,1.56-0.84,3.07-1.29,4.63l-1.46,4.59l-0.73,2.29l-0.84,2.29l-1.63,4.54c-1.18,2.98-2.36,6.01-3.53,8.99
			c-1.23,2.98-2.41,6.01-3.53,8.99c-0.56,1.51-1.07,3.03-1.63,4.5c-0.28,0.73-0.56,1.51-0.79,2.25l-1.46,4.59
			c-0.22,0.78-0.5,1.51-0.67,2.29l-1.18,4.59c-0.45,1.51-0.67,3.07-0.95,4.63l-0.9,4.63L746.88,470.29L746.88,470.29z"/>
		<path fill="#98CBF4" d="M763.19,307.9c0.43,2.16,1.03,3.65,1.48,5.25c1.36,4.74,5.11,6.67,9.8,5.33c5.21-1.49,6.81-5.49,5.6-9.71
			c-0.54-1.88-0.87-3.51-1.64-5.24l4.13-1.46c1.17,2.94,1.17,2.94,1.96,5.69c2.04,7.1-0.77,14.09-8.76,16.38
			c-6.67,1.91-12.9-0.82-15.23-8.93c-0.82-2.85-1.16-3.85-1.47-6.1L763.19,307.9z"/>
		
			<rect x="771.7" y="304.82" transform="matrix(0.2757 0.9612 -0.9612 0.2757 855.8983 -521.6232)" fill="#98CBF4" width="4.77" height="4.65"/>
		
			<rect x="765.74" y="306.53" transform="matrix(0.2757 0.9612 -0.9612 0.2757 853.2238 -514.6569)" fill="#98CBF4" width="4.77" height="4.65"/>
	</g>
	<g>
		<path fill="#BBDDFF" d="M957.09,469.82l-1.64-0.4l0.97-4.72c0.35-1.58,0.74-3.14,0.92-4.74l0.71-4.77
			c0.15-0.8,0.18-1.59,0.28-2.41l0.47-4.87c0.08-0.78,0.13-1.61,0.17-2.41c0.07-1.59,0.2-3.2,0.29-4.84
			c0.15-3.22,0.28-6.51,0.33-9.77c0.1-3.24,0.23-6.53,0.33-9.77l0.3-4.88l0.14-2.47l0.23-2.43l0.47-4.87
			c0.2-1.64,0.43-3.21,0.63-4.85c0.25-1.62,0.43-3.21,0.68-4.83l0.84-4.82c0.3-1.6,0.55-3.22,0.84-4.82l2.07-9.48l0.26-1.21
			l0.3-1.19l0.59-2.34c0.79-3.12,1.59-6.29,2.43-9.39l2.77-9.26c0.44-1.54,0.9-3.13,1.39-4.65l1.49-4.61l3.05-9.25
			c2.13-6.08,4.32-12.18,6.5-18.24l0.97,0.38c-2.13,6.08-4.32,12.18-6.45,18.26l-2.92,9.2l-1.49,4.61
			c-0.51,1.57-0.95,3.11-1.39,4.65l-2.67,9.3c-0.84,3.1-1.62,6.23-2.41,9.35l-0.59,2.34l-0.3,1.19l-0.24,1.17l-2.07,9.48
			c-0.3,1.6-0.53,3.18-0.82,4.78l-0.89,4.8c-0.23,1.58-0.43,3.21-0.61,4.81c-0.23,1.58-0.43,3.21-0.61,4.81l-0.4,4.84l-0.23,2.43
			l-0.12,2.43l-0.24,4.86c-0.12,3.29-0.23,6.53-0.28,9.79c-0.06,3.26-0.18,6.55-0.28,9.79c-0.04,1.65-0.17,3.27-0.26,4.9
			c-0.05,0.84-0.04,1.65-0.14,2.47l-0.47,4.87c-0.08,0.78-0.13,1.61-0.28,2.41l-0.73,4.81c-0.2,1.64-0.55,3.22-0.89,4.8
			L957.09,469.82L957.09,469.82z"/>
		<g>
			<path fill="#98CBF4" d="M1004.54,311.85c-1.06,2.01-1.72,2.82-3.48,5.22c-4.98,6.82-11.77,7.24-17.38,3.14
				c-6.71-4.9-6.94-12.43-2.59-18.39c1.69-2.31,1.69-2.31,3.8-4.67l3.37,2.8c-1.31,1.36-2.19,2.78-3.34,4.36
				c-2.58,3.54-2.46,7.84,1.91,11.04c3.94,2.88,8.13,2.35,11.03-1.63c0.98-1.35,2.05-2.53,3.2-4.42L1004.54,311.85z"/>
			
				<rect x="988.72" y="302.51" transform="matrix(-0.5898 0.8076 -0.8076 -0.5898 1821.8192 -315.7688)" fill="#98CBF4" width="4.77" height="4.65"/>
			
				<rect x="993.73" y="306.17" transform="matrix(-0.5898 0.8076 -0.8076 -0.5898 1832.7316 -314.0004)" fill="#98CBF4" width="4.77" height="4.65"/>
		</g>
	</g>
	<g>
		<path fill="#BBDDFF" d="M360.84,476.29l-0.68-3.96c-0.24-1.32-0.49-2.63-0.58-3.98l-0.42-3.97c-0.1-0.66-0.09-1.35-0.13-1.98
			l-0.15-3.99c-0.05-0.67,0.02-1.33,0.02-2.01c0.02-1.33-0.01-2.65,0.06-3.99c0.1-2.63,0.19-5.3,0.35-7.94
			c0.15-2.64,0.26-5.27,0.35-7.94l0.07-3.95l0.04-1.98l-0.08-1.99l-0.09-3.96c-0.08-1.31-0.17-2.66-0.3-3.96
			c-0.08-1.31-0.17-2.66-0.3-3.96l-0.58-3.98c-0.19-1.33-0.32-2.63-0.52-3.95l-1.46-7.9l-0.16-0.97l-0.23-1l-0.44-1.96
			c-0.59-2.61-1.17-5.23-1.81-7.83l-2.07-7.82c-0.34-1.3-0.69-2.59-1.09-3.92l-1.19-3.9l-2.32-7.77c-1.74-5.16-3.54-10.34-5.27-15.5
			l1-0.2c1.79,5.15,3.59,10.33,5.32,15.49l2.45,7.83l1.19,3.9c0.39,1.29,0.75,2.62,1.09,3.92l2.17,7.8c0.64,2.6,1.24,5.26,1.82,7.87
			l0.44,1.96l0.23,1l0.18,1.01l1.46,7.9c0.19,1.33,0.34,2.66,0.53,3.99l0.53,3.99c0.14,1.34,0.22,2.65,0.37,3.98
			c0.09,1.35,0.22,2.65,0.32,3.99l0.15,3.99l0.08,1.99l-0.02,2.01l-0.01,3.98c-0.1,2.63-0.19,5.3-0.3,7.93
			c-0.15,2.64-0.24,5.31-0.3,7.93c-0.02,1.33,0.01,2.65-0.02,3.94c-0.02,0.65-0.02,1.33,0.01,1.97l0.15,3.99
			c0.05,0.67,0.03,1.32,0.13,1.98l0.4,3.94c0.08,1.31,0.37,2.62,0.62,3.93l0.67,3.92L360.84,476.29L360.84,476.29z"/>
		<g>
			<path fill="#98CBF4" d="M330.78,336.44c0.58,2.13,1.28,3.56,1.86,5.13c1.7,4.63,5.58,6.29,10.16,4.61
				c5.09-1.87,6.39-5.97,4.89-10.09c-0.67-1.84-1.12-3.44-2.01-5.11l4.01-1.76c1.37,2.85,1.37,2.85,2.36,5.54
				c2.54,6.94,0.24,14.11-7.56,16.97c-6.51,2.39-12.93,0.11-15.83-7.81c-1.02-2.79-1.43-3.76-1.9-5.98L330.78,336.44z"/>
			
				<rect x="339.22" y="332.59" transform="matrix(0.3442 0.9389 -0.9389 0.3442 538.4745 -101.095)" fill="#98CBF4" width="4.77" height="4.65"/>
			
				<rect x="333.4" y="334.72" transform="matrix(0.3442 0.9389 -0.9389 0.3442 536.66 -94.231)" fill="#98CBF4" width="4.77" height="4.65"/>
		</g>
	</g>
	<g>
		<path fill="#BBDDFF" d="M816.16,468.63c3.06-3.8,6.77-7.73,9.04-11.8c2.3-4.08,4.29-8.25,6.06-12.48
			c3.54-8.41,6.33-16.94,8.82-25.42c2.49-8.52,4.68-17.02,6.83-25.51l6.35-25.52l1.23,0l-6.27,25.53
			c-2.12,8.52-4.27,17.01-6.76,25.56c-2.38,8.49-5.13,17.04-8.67,25.51c-2.45,5.86-4.31,9.44-6.1,12.59
			c-2.3,4.15-5.53,8.18-8.62,12.05L816.16,468.63z"/>
		<path fill="#98CBF4" d="M861.1,360.69l-5.69,0.28c-3.68-11.36,4.7-17.66,5.06-17.93l3.52,4.21l-1.76-2.11l1.79,2.09
			c-0.16,0.13-3.08,2.42-3.53,6.75c2.24-1.38,5.44-2.74,10.01-3.76l1.07,5.32C862.94,357.48,861.11,360.66,861.1,360.69z"/>
	</g>
	<g>
		<g>
			<path fill="#BBDDFF" d="M1111.44,469.59l-0.83-0.9c23.42-21.77,32.94-52.97,42.14-83.14c3.25-10.64,6.6-21.64,10.5-31.89
				c8.23-21.67,9.26-29.84,12-51.68c2.34-18.61,0.27-42.41,0.25-42.64l1.22-0.11c0.02,0.24,2.1,24.17-0.25,42.91
				c-2.75,21.94-3.78,30.16-12.07,51.96c-3.88,10.22-7.23,21.19-10.47,31.81C1144.67,416.23,1135.1,447.59,1111.44,469.59z"/>
		</g>
		<g>
			<path fill="#98CBF4" d="M1188.51,241.21c-0.18,2.58-0.65,4.38-0.95,6.31c-0.88,5.7-4.94,8.5-10.59,7.63
				c-6.27-0.96-8.71-5.37-7.93-10.44c0.35-2.26,0.49-4.21,1.13-6.33l-5.01-1.09c-0.92,3.59-0.92,3.59-1.43,6.9
				c-1.31,8.55,2.98,16.24,12.59,17.72c8.02,1.23,14.86-2.86,16.36-12.62c0.53-3.43,0.78-4.64,0.8-7.3L1188.51,241.21
				L1188.51,241.21z"/>
			
				<rect x="1172.99" y="239.23" transform="matrix(-0.1521 0.9884 -0.9884 -0.1521 1593.7189 -883.3657)" fill="#98CBF4" width="5.59" height="5.44"/>
			
				<rect x="1180.16" y="240.33" transform="matrix(-0.1521 0.9884 -0.9884 -0.1521 1603.0713 -889.1841)" fill="#98CBF4" width="5.59" height="5.44"/>
		</g>
	</g>
	<g>
		<path fill="#BBDDFF" d="M490.93,471.13c3.41-5.31,7.71-10.91,9.93-16.4c2.27-5.51,4.09-11.05,5.57-16.64
			c2.98-11.1,8.53-22.53,11.6-33.51c3.13-11.19,3.43-22,3.54-32.89c0.08-8.16-2.38-32.46-2.38-32.46l1.74-0.24
			c0,0,2.53,24.3,2.49,32.46c-0.06,10.9-0.39,22.19-3.42,32.93c-3.1,10.96-8.39,22.42-11.36,33.59c-2.05,7.73-3.83,12.53-5.59,16.78
			c-2.25,5.59-5.84,11.22-9.28,16.62L490.93,471.13z"/>
		<g>
			<path fill="#98CBF4" d="M524.64,333.58l-5.66,0.58c-4.27-11.15,3.76-17.89,4.1-18.17l3.74,4.02l-1.87-2.01l1.89,1.99
				c-0.16,0.14-2.95,2.58-3.16,6.93c2.17-1.49,5.29-3.03,9.79-4.29l1.35,5.26C526.31,330.27,524.65,333.55,524.64,333.58z"/>
		</g>
	</g>
	<g>
		<path fill="#BBDDFF" d="M1044.56,467l0.9-5.64c0.28-1.88,0.56-3.76,1.01-5.64l1.18-5.58c0.17-0.94,0.45-1.88,0.67-2.76l1.46-5.53
			c0.22-0.94,0.56-1.82,0.84-2.76c0.56-1.82,1.07-3.65,1.68-5.47c1.18-3.59,2.36-7.24,3.59-10.84c1.23-3.59,2.41-7.19,3.59-10.84
			l1.68-5.42l0.84-2.71l0.73-2.76l1.51-5.47c0.45-1.82,0.9-3.7,1.29-5.53c0.45-1.82,0.9-3.7,1.29-5.53l1.01-5.64
			c0.34-1.88,0.73-3.7,1.07-5.58l1.68-11.28l0.22-1.38l0.17-1.44l0.34-2.82c0.45-3.76,0.9-7.52,1.29-11.28l1.01-11.33
			c0.17-1.88,0.34-3.76,0.45-5.69l0.34-5.69l0.73-11.33c0.28-7.57,0.5-15.2,0.79-22.78h1.12c-0.22,7.57-0.45,15.2-0.73,22.78
			l-0.62,11.44l-0.34,5.69c-0.11,1.88-0.28,3.81-0.45,5.69l-0.9,11.33c-0.39,3.76-0.84,7.57-1.29,11.33l-0.34,2.82l-0.17,1.44
			l-0.22,1.44l-1.68,11.28c-0.34,1.88-0.73,3.76-1.07,5.64l-1.07,5.64c-0.39,1.88-0.84,3.7-1.23,5.58c-0.45,1.88-0.84,3.7-1.29,5.58
			l-1.46,5.53l-0.73,2.76l-0.84,2.76l-1.63,5.47c-1.18,3.59-2.36,7.24-3.53,10.84c-1.23,3.59-2.41,7.24-3.53,10.84
			c-0.56,1.82-1.07,3.65-1.63,5.42c-0.28,0.88-0.56,1.82-0.79,2.71l-1.46,5.53c-0.22,0.94-0.5,1.82-0.67,2.76l-1.18,5.53
			c-0.45,1.82-0.67,3.7-0.95,5.58l-0.9,5.58L1044.56,467L1044.56,467z"/>
		<g>
			<path fill="#98CBF4" d="M1083.66,282.44l-5.69,0.28c-3.68-11.36,4.7-17.66,5.06-17.93l3.52,4.21l-1.76-2.11l1.79,2.09
				c-0.16,0.13-3.08,2.42-3.53,6.75c2.24-1.38,5.44-2.74,10.01-3.76l1.07,5.32C1085.5,279.23,1083.67,282.41,1083.66,282.44z"/>
		</g>
	</g>
	<g>
		<path fill="#BBDDFF" d="M628.31,472.04l-1.63-0.31l0.82-3.28c0.3-1.1,0.64-2.18,0.78-3.3l0.57-3.32c0.12-0.56,0.13-1.11,0.21-1.68
			l0.32-3.4c0.06-0.54,0.09-1.13,0.1-1.68c0.02-1.11,0.11-2.24,0.15-3.38c0.06-2.25,0.09-4.55,0.05-6.83
			c0.01-2.27,0.04-4.56,0.05-6.83l0.16-3.41l0.06-1.73l0.16-1.7l0.32-3.4c0.15-1.14,0.33-2.24,0.48-3.38
			c0.2-1.13,0.33-2.24,0.53-3.37l0.69-3.35c0.25-1.11,0.45-2.24,0.69-3.35l1.78-6.59l0.22-0.84l0.27-0.83l0.52-1.63
			c0.69-2.17,1.4-4.37,2.13-6.52l2.47-6.42c0.39-1.07,0.8-2.17,1.24-3.23l1.34-3.2l2.75-6.41c1.93-4.21,3.92-8.43,5.9-12.62
			l0.97,0.29c-1.93,4.21-3.92,8.43-5.85,12.64l-2.62,6.38l-1.34,3.2c-0.46,1.09-0.85,2.16-1.24,3.23l-2.38,6.45
			c-0.74,2.15-1.43,4.32-2.12,6.49l-0.52,1.63l-0.27,0.83l-0.2,0.81l-1.78,6.59c-0.25,1.11-0.43,2.21-0.68,3.32l-0.74,3.34
			c-0.18,1.1-0.33,2.24-0.47,3.35c-0.18,1.1-0.33,2.24-0.47,3.35l-0.26,3.38l-0.16,1.7l-0.05,1.7l-0.1,3.39
			c-0.03,2.3-0.04,4.56,0,6.85c0.04,2.28,0.01,4.58,0,6.85c0.01,1.16-0.07,2.28-0.11,3.42c-0.03,0.59,0.01,1.16-0.06,1.73l-0.32,3.4
			c-0.06,0.54-0.09,1.13-0.21,1.68l-0.58,3.35c-0.15,1.14-0.45,2.24-0.74,3.34L628.31,472.04L628.31,472.04z"/>
		<g>
			<path fill="#98CBF4" d="M671.08,360.36c-1.06,2.01-1.72,2.82-3.48,5.22c-4.98,6.82-11.77,7.24-17.38,3.14
				c-6.71-4.9-6.94-12.43-2.59-18.39c1.69-2.31,1.69-2.31,3.8-4.67l3.37,2.8c-1.31,1.36-2.19,2.78-3.34,4.36
				c-2.58,3.54-2.46,7.84,1.91,11.04c3.94,2.88,8.13,2.35,11.03-1.63c0.98-1.35,2.05-2.53,3.2-4.42L671.08,360.36z"/>
			
				<rect x="655.27" y="351.02" transform="matrix(-0.5898 0.8076 -0.8076 -0.5898 1330.8738 30.6364)" fill="#98CBF4" width="4.77" height="4.65"/>
			
				<rect x="660.27" y="354.67" transform="matrix(-0.5898 0.8076 -0.8076 -0.5898 1341.7853 32.4045)" fill="#98CBF4" width="4.77" height="4.65"/>
		</g>
	</g>
	<g>
		<path fill="#BBDDFF" d="M413.42,467.3l0.18-4.98c0.04-1.66,0.08-3.32,0.29-4.99l0.46-4.97c0.05-0.83,0.21-1.68,0.32-2.47
			l0.75-4.96c0.1-0.84,0.32-1.65,0.48-2.49c0.32-1.65,0.59-3.29,0.97-4.94c0.71-3.25,1.42-6.55,2.19-9.81
			c0.77-3.26,1.48-6.51,2.19-9.81l0.98-4.89l0.49-2.45l0.37-2.48l0.81-4.92c0.21-1.63,0.42-3.31,0.58-4.94
			c0.21-1.63,0.42-3.31,0.58-4.94l0.29-4.99c0.1-1.66,0.25-3.29,0.35-4.95l0.24-9.95l0.05-1.22l-0.02-1.26l-0.02-2.48
			c-0.03-3.3-0.06-6.6-0.15-9.89l-0.43-9.91c-0.07-1.64-0.14-3.29-0.28-4.97l-0.39-4.95l-0.71-9.87c-0.68-6.57-1.42-13.18-2.1-19.75
			l1.11-0.15c0.74,6.56,1.48,13.17,2.16,19.74l0.84,9.95l0.39,4.95c0.13,1.64,0.21,3.33,0.28,4.97l0.54,9.89
			c0.09,3.29,0.13,6.64,0.16,9.94l0.02,2.48l0.02,1.26l-0.04,1.27l-0.24,9.95c-0.1,1.66-0.25,3.34-0.34,5l-0.34,5
			c-0.15,1.67-0.36,3.3-0.52,4.98c-0.21,1.68-0.36,3.3-0.57,4.98l-0.75,4.96l-0.37,2.48l-0.48,2.49l-0.92,4.93
			c-0.71,3.25-1.42,6.55-2.13,9.81c-0.77,3.26-1.47,6.56-2.13,9.81c-0.32,1.65-0.59,3.29-0.93,4.88c-0.17,0.8-0.32,1.65-0.44,2.44
			l-0.75,4.96c-0.1,0.84-0.27,1.64-0.32,2.47l-0.47,4.92c-0.21,1.63-0.2,3.28-0.24,4.94l-0.18,4.93L413.42,467.3L413.42,467.3z"/>
		<g>
			<path fill="#98CBF4" d="M426.11,304.73l-5.61-0.89c-1.17-11.27,8.36-15.42,8.76-15.59l2.54,4.62l-1.27-2.31l1.3,2.3
				c-0.19,0.08-3.53,1.62-4.88,5.54c2.48-0.82,5.9-1.44,10.58-1.46l-0.08,5.15C428.59,302.12,426.13,304.7,426.11,304.73z"/>
		</g>
	</g>
</g>
</svg>
